<svg viewBox="273.8782 177.9491 342.2436 147.4352" width="5000" height="2153.9511622715518" xmlns="http://www.w3.org/2000/svg" xmlns:xlink="http://www.w3.org/1999/xlink" preserveAspectRatio="none"><defs></defs><style>.a6izo4zJpcolor {fill:#000000;fill-opacity:1;}.a6izo4zJpstrokeColor-str {stroke:#3F3F3F;stroke-opacity:1;}.aD6z1nYkhcolor {fill:#000000;fill-opacity:1;}.aD6z1nYkhstrokeColor-str {stroke:#3F3F3F;stroke-opacity:1;}.alcHhARl1acolors-0 {fill:#000000;fill-opacity:1;}.alcHhARl1acolors-1 {fill:#3F3F3F;fill-opacity:1;}.alcHhARl1acolors-2 {fill:#797979;fill-opacity:1;}.alcHhARl1acolors-3 {fill:#969696;fill-opacity:1;}.alcHhARl1acolors-4 {fill:#B2B2B2;fill-opacity:1;}.alcHhARl1acolors-5 {fill:#C6C6C6;fill-opacity:1;}.alcHhARl1acolors-6 {fill:#D7D7D7;fill-opacity:1;}.alcHhARl1acolors-7 {fill:#E5E5E5;fill-opacity:1;}</style><g opacity="1" transform="rotate(0 453.4927 306.6226)">
<svg width="142.4304" height="18.7617" x="453.4927" y="306.6226" version="1.1" preserveAspectRatio="none" viewBox="0.76 -26.6 270.24 35.6">
  <g transform="matrix(1 0 0 1 0 0)" class="a6izo4zJpcolor"><path id="id-6izo4zJp14" d="M23.24-22.12L23.24-22.12Q20.08-23.48 16.38-23.48Q12.68-23.48 10.38-21.12Q8.08-18.76 8.08-14.96L8.08-14.96L7.20-14.96Q7.20-19.12 9.76-21.74Q12.32-24.36 16.32-24.36L16.32-24.36Q19.52-24.36 23.24-23.12L23.24-23.12Q27.52-21.56 32.52-21.56L32.52-21.56L32.52-20.72Q29.52-20.72 27.72-21L27.72-21Q27.68-20.84 27.44-19.68L27.44-19.68Q25.96-13.12 25.04-9.24L25.04-9.24L35.76-9.24L39.84-26.60L40.68-26.60L35.08-2.56Q34.72-1.08 34.72-0.56L34.72-0.56Q34.72 1.12 36.28 1.12L36.28 1.12Q37.40 1.12 38.24-0.04L38.24-0.04L38.80 0.44Q38.52 0.96 37.80 1.42Q37.08 1.88 36.06 1.88Q35.04 1.88 34.46 1.20Q33.88 0.52 33.88-0.44L33.88-0.44L34.36-3.08L35.60-8.52L24.84-8.52Q24.40-6.84 23.96-4.88Q23.52-2.92 22.90-1.04Q22.28 0.84 21.20 2.84Q20.12 4.84 18.78 6.10Q17.44 7.36 15.42 8.18Q13.40 9 11.06 9Q8.72 9 6.64 8.12Q4.56 7.24 3.16 5.68L3.16 5.68Q0.76 2.92 0.76-1L0.76-1Q0.76-1.64 0.80-2.28L0.80-2.28L1.68-2.16Q1.64-1.60 1.64-1.04L1.64-1.04Q1.64 2.68 3.90 5.18Q6.16 7.68 10 7.68Q13.84 7.68 15.40 5.64Q16.96 3.60 18.38-2.20Q19.80-8 23.24-22.12Z M57.76 0.36L57.76 0.36Q54.24 0.36 53.92-2.72L53.92-2.72Q52.16 0.36 49.48 0.36Q46.80 0.36 45.22-1.26Q43.64-2.88 43.64-5.80L43.64-5.80Q43.64-10.36 45.88-12.96Q48.12-15.56 51.68-15.56L51.68-15.56Q54.60-15.56 55.56-12.80L55.56-12.80Q55.76-14 56-15.20L56-15.20Q58.96-15.20 60.40-15.44L60.40-15.44L60.92-15.56L58.16-0.44Q59.36-0.56 60.16-1.56L60.16-1.56L60.76-1.08Q59.56 0.36 57.76 0.36ZM48.16-3.76Q48.16-1.96 48.62-1.26Q49.08-0.56 50.04-0.56Q51-0.56 52-1.60L52-1.60Q53.32-2.96 54.12-5.04L54.12-5.04Q54.24-5.56 54.58-7.54Q54.92-9.52 55.16-10.80L55.16-10.80Q55.04-12.32 54.32-13.44Q53.60-14.56 52.52-14.56L52.52-14.56Q50.56-14.56 49.36-11.06Q48.16-7.56 48.16-3.76L48.16-3.76Z M72.40-1.08Q71.20 0.36 69.40 0.36Q67.60 0.36 66.58-0.56Q65.56-1.48 65.56-2.96L65.56-2.96Q65.56-3.48 66.20-7.32L66.20-7.32L67.52-14.48L65.84-14.48L65.92-15.20L67.64-15.20Q70.60-15.20 72-15.44L72-15.44L72.56-15.56L69.80-0.44Q71-0.56 71.80-1.56L71.80-1.56L72.40-1.08ZM68.88-19.40Q68.04-20.24 68.04-21.44Q68.04-22.64 68.88-23.50Q69.72-24.36 70.92-24.36Q72.12-24.36 72.98-23.50Q73.84-22.64 73.84-21.44Q73.84-20.24 72.98-19.40Q72.12-18.56 70.92-18.56Q69.72-18.56 68.88-19.40Z M77.52-13.64L76.92-14.12Q78.12-15.56 79.94-15.56Q81.76-15.56 82.76-14.64Q83.76-13.72 83.76-12.04L83.76-12.04L83.76-11.80Q85.56-15.56 88.44-15.56L88.44-15.56Q91.52-15.56 91.52-12.36L91.52-12.36Q91.52-11.04 90.64-9.56Q89.76-8.08 88.88-6.74Q88-5.40 88-4.36L88-4.36L87.04-4.36Q87.04-5.84 88.76-8.36Q90.48-10.88 90.48-12.26Q90.48-13.64 89.94-14.14Q89.40-14.64 88.34-14.64Q87.28-14.64 86.26-13.72Q85.24-12.80 84.56-11.40L84.56-11.40Q83.48-9.32 83.12-8L83.12-8L83.12-7.96L81.68 0L76.88 0L79.52-14.76Q78.32-14.64 77.52-13.64L77.52-13.64Z M113.44-12.24L113.44-12.24Q115.52-12.92 118.28-12.92Q121.04-12.92 121.04-11.32L121.04-11.32Q121.04-10.36 120-9.74Q118.96-9.12 117-9.12L117-9.12Q113.92-9.12 112.04-10.60L112.04-10.60Q111.32-9.84 110.92-9.32Q110.52-8.80 110.02-7.32Q109.52-5.84 109.52-3.76Q109.52-1.68 111.28-0.14Q113.04 1.40 114.94 1.40Q116.84 1.40 118.48 0.68Q120.12-0.04 121.08-1Q122.04-1.96 122.76-3.12L122.76-3.12Q123.76-4.60 124.08-5.72L124.08-5.72L124.88-5.52Q124.88-5.40 124.58-4.68Q124.28-3.96 123.48-2.78Q122.68-1.60 121.56-0.50Q120.44 0.60 118.48 1.40Q116.52 2.20 114.20 2.20L114.20 2.20Q109.92 2.20 107.52 0.38Q105.12-1.44 105.12-4.36Q105.12-7.28 106.94-9Q108.76-10.72 111.24-11.40L111.24-11.40Q109.44-13.60 109.44-16.62Q109.44-19.64 111.86-22Q114.28-24.36 118.84-24.36L118.84-24.36Q122.32-24.36 124.18-23.14Q126.04-21.92 126.04-20.10Q126.04-18.28 125.10-16.38Q124.16-14.48 124.04-13.36L124.04-13.36L123.20-13.36Q123.32-14.56 124.26-16.44Q125.20-18.32 125.20-19.94Q125.20-21.56 123.50-22.60Q121.80-23.64 119.18-23.64Q116.56-23.64 114.72-21.62Q112.88-19.60 112.88-15.44L112.88-15.44Q112.88-13.20 113.44-12.24ZM114.04-11.08Q114.24-10.80 115.06-10.32Q115.88-9.84 117.24-9.84Q118.60-9.84 119.42-10.26Q120.24-10.68 120.24-11.24L120.24-11.24Q120.24-12.20 118.08-12.20Q115.92-12.20 113.76-11.56L113.76-11.56Q113.84-11.36 114.04-11.08Z M140.12-7.60L142.20-2.52Q142.68-1.28 143.74-1.28Q144.80-1.28 145.52-2.64L145.52-2.64L146.16-2.28Q145.76-1.60 145.46-1.22Q145.16-0.84 144.30-0.42Q143.44 0 142.20 0L142.20 0Q138.68 0 137.48-2.96L137.48-2.96L135.96-6.64Q133.60-6.40 132.16-5.44L132.16-5.44L132.20-5.44Q133.40-5.44 134.24-4.60Q135.08-3.76 135.08-2.56Q135.08-1.36 134.24-0.50Q133.40 0.36 132.20 0.36Q131 0.36 130.14-0.50Q129.28-1.36 129.28-2.56L129.28-2.56Q129.28-4.52 131.10-5.90Q132.92-7.28 135.60-7.56L135.60-7.56L133.40-13.04Q132.92-14.28 131.90-14.28Q130.88-14.28 130.08-12.92L130.08-12.92L129.48-13.28Q129.88-13.96 130.18-14.34Q130.48-14.72 131.34-15.14Q132.20-15.56 133.44-15.56L133.44-15.56Q136.92-15.56 138.12-12.60L138.12-12.60L139.76-8.52Q142.24-8.76 143.64-9.76L143.64-9.76L143.60-9.76Q142.40-9.76 141.56-10.60Q140.72-11.44 140.72-12.64Q140.72-13.84 141.56-14.70Q142.40-15.56 143.60-15.56Q144.80-15.56 145.66-14.70Q146.52-13.84 146.52-12.64L146.52-12.64Q146.52-10.60 144.64-9.22Q142.76-7.84 140.12-7.60L140.12-7.60Z M150.80-15.20L152.84-15.20L153.92-21.12Q156.88-21.12 158.32-21.36L158.32-21.36L158.84-21.48Q158.28-18.68 157.60-15.20L157.60-15.20L162.56-15.20L162.48-14.48L157.48-14.48Q155.48-4.16 155.48-2.04L155.48-2.04Q155.48-0.76 156.84-0.76Q158.20-0.76 159.32-2.48Q160.44-4.20 160.92-6.20L160.92-6.20L161.64-5.96Q160.16 0.36 155.52 0.36L155.52 0.36Q153.60 0.36 152.32-0.70Q151.04-1.76 151.04-3.66Q151.04-5.56 152.68-14.48L152.68-14.48L150.72-14.48L150.80-15.20Z M173.88-15.56L173.88-15.56Q178.96-15.56 178.96-11.52L178.96-11.52Q178.96-9 176.58-7.70Q174.20-6.40 169.80-6.36L169.80-6.36Q169.72-4.92 169.72-4.08L169.72-4.08Q169.72-2.28 170.54-1.42Q171.36-0.56 172.60-0.56Q173.84-0.56 174.86-1.04Q175.88-1.52 176.48-2.18Q177.08-2.84 177.52-3.56L177.52-3.56Q178.32-4.88 178.32-5.24L178.32-5.24L179.04-4.92Q178.92-4.28 178.32-3.22Q177.72-2.16 177-1.48Q176.28-0.80 174.88-0.22Q173.48 0.36 171.76 0.36L171.76 0.36Q168.52 0.36 166.86-1.18Q165.20-2.72 165.20-5.40L165.20-5.40Q165.20-10.16 167.56-12.86Q169.92-15.56 173.88-15.56ZM177.96-11.52Q177.96-12.84 177.18-13.70Q176.40-14.56 174.86-14.56Q173.32-14.56 171.86-12.72Q170.40-10.88 169.92-7.28L169.92-7.28Q177.96-7.32 177.96-11.52L177.96-11.52Z M198.60-0.44L198.60-0.44Q199.56-0.44 200.60-1.56L200.60-1.56L201.20-1.08Q200.92-0.52 199.96-0.08Q199 0.36 197.84 0.36L197.84 0.36Q194.20 0.36 194.20-2.92L194.20-2.92Q194.20-4.32 194.92-7.92Q195.64-11.52 195.64-12.64L195.64-12.64Q195.64-14.36 194-14.36L194-14.36Q192.68-14.36 191.46-12.64Q190.24-10.92 189.44-7.92L189.44-7.92L188.08-0.44Q189.32-0.56 190.12-1.56L190.12-1.56L190.72-1.08Q189.52 0.36 187.72 0.36Q185.92 0.36 184.90-0.56Q183.88-1.48 183.88-2.96L183.88-2.96Q183.88-3.52 184.52-7.36L184.52-7.36L185.84-14.76Q184.64-14.64 183.84-13.64L183.84-13.64L183.24-14.12Q184.44-15.56 186.26-15.56Q188.08-15.56 189.08-14.64Q190.08-13.72 190.08-12.04L190.08-12.04L190.08-11.80Q191.72-15.56 195.20-15.56L195.20-15.56Q197.56-15.56 198.88-14.22Q200.20-12.88 200.20-10.52L200.20-10.52Q200.20-9.28 199.44-5.74Q198.68-2.20 198.60-0.44Z M208.84-0.68L208.84-0.68Q212.80-0.68 212.80-6.52L212.80-6.52Q212.80-7.96 212.38-9.92Q211.96-11.88 211.88-12.36L211.88-12.36Q209.44-9.84 206.40-9.32L206.40-9.32L206.40-10.28Q209.28-10.92 211.80-13.56L211.80-13.56L211.80-13.72Q211.80-14.68 212.08-15.60Q212.36-16.52 212.64-16.96L212.64-16.96L212.92-17.40L213.88-17.40Q213.88-15.64 214.44-14.18Q215-12.72 215.68-11.82Q216.36-10.92 216.92-9.46Q217.48-8 217.48-6.24L217.48-6.24Q217.48-3.40 215.34-1.52Q213.20 0.36 210.20 0.36Q207.20 0.36 205.66-1Q204.12-2.36 204.12-4.14Q204.12-5.92 205-6.70Q205.88-7.48 207.08-7.48Q208.28-7.48 209.06-6.70Q209.84-5.92 209.84-4.70Q209.84-3.48 209.08-2.64Q208.32-1.80 207.12-1.80L207.12-1.80Q206.60-1.80 206.04-1.96L206.04-1.96Q206.92-0.68 208.84-0.68Z M229-1.08Q227.80 0.36 226 0.36Q224.20 0.36 223.18-0.56Q222.16-1.48 222.16-2.96L222.16-2.96Q222.16-3.48 222.80-7.32L222.80-7.32L224.12-14.48L222.44-14.48L222.52-15.20L224.24-15.20Q227.20-15.20 228.60-15.44L228.60-15.44L229.16-15.56L226.40-0.44Q227.60-0.56 228.40-1.56L228.40-1.56L229-1.08ZM225.48-19.40Q224.64-20.24 224.64-21.44Q224.64-22.64 225.48-23.50Q226.32-24.36 227.52-24.36Q228.72-24.36 229.58-23.50Q230.44-22.64 230.44-21.44Q230.44-20.24 229.58-19.40Q228.72-18.56 227.52-18.56Q226.32-18.56 225.48-19.40Z M239.56 0.36Q236.48 0.36 234.88-1.18Q233.28-2.72 233.28-5.06Q233.28-7.40 233.70-9.06Q234.12-10.72 235.08-12.26Q236.04-13.80 237.98-14.68Q239.92-15.56 242.82-15.56Q245.72-15.56 247.34-14.02Q248.96-12.48 248.96-9.80L248.96-9.80Q248.96-5.24 246.54-2.44Q244.12 0.36 239.56 0.36L239.56 0.36ZM237.80-3.76L237.80-3.76Q237.80-0.56 239.66-0.56Q241.52-0.56 242.98-3.78Q244.44-7 244.44-11.44L244.44-11.44Q244.44-14.80 242.62-14.80Q240.80-14.80 239.30-11.74Q237.80-8.68 237.80-3.76Z M268.40-0.44L268.40-0.44Q269.36-0.44 270.40-1.56L270.40-1.56L271-1.08Q270.72-0.52 269.76-0.08Q268.80 0.36 267.64 0.36L267.64 0.36Q264 0.36 264-2.92L264-2.92Q264-4.32 264.72-7.92Q265.44-11.52 265.44-12.64L265.44-12.64Q265.44-14.36 263.80-14.36L263.80-14.36Q262.48-14.36 261.26-12.64Q260.04-10.92 259.24-7.92L259.24-7.92L257.88-0.44Q259.12-0.56 259.92-1.56L259.92-1.56L260.52-1.08Q259.32 0.36 257.52 0.36Q255.72 0.36 254.70-0.56Q253.68-1.48 253.68-2.96L253.68-2.96Q253.68-3.52 254.32-7.36L254.32-7.36L255.64-14.76Q254.44-14.64 253.64-13.64L253.64-13.64L253.04-14.12Q254.24-15.56 256.06-15.56Q257.88-15.56 258.88-14.64Q259.88-13.72 259.88-12.04L259.88-12.04L259.88-11.80Q261.52-15.56 265-15.56L265-15.56Q267.36-15.56 268.68-14.22Q270-12.88 270-10.52L270-10.52Q270-9.28 269.24-5.74Q268.48-2.20 268.40-0.44Z"/></g>
</svg>
</g><g opacity="1" transform="rotate(0 293.861 253.1349)">
<svg width="322.2608" height="43.7419" x="293.861" y="253.1349" version="1.1" preserveAspectRatio="none" viewBox="1.2402 -30.3906 230.9473 31.3477">
  <g transform="matrix(1 0 0 1 0 0)" class="aD6z1nYkhcolor"><path id="id-D6z1nYkh7" d="M15.84-12.52L15.84-12.52L13.13-12.52Q13.13-7.87 13.32-2.68L13.32-2.68Q13.32-2.56 13.42-2.46Q13.52-2.36 13.70-2.27Q13.89-2.17 14.34-2.01Q14.79-1.86 16.15-1.67Q17.52-1.48 17.71-1.45L17.71-1.45Q18.05-0.35 17.60 0.96L17.60 0.96Q10.39 0.80 8.85 0.80L8.85 0.80Q7.79 0.80 1.48 0.96L1.48 0.96Q1.00-0.39 1.48-1.56L1.48-1.56Q5.72-1.99 5.76-2.71L5.76-2.71Q6.00-7.60 6.00-15L6.00-15Q6.00-21.29 5.80-25.88L5.80-25.88Q5.76-26.60 1.45-27.03L1.45-27.03Q1.07-28.40 1.52-29.55L1.52-29.55Q7.52-29.36 9.47-29.36L9.47-29.36L27.56-29.36Q28.05-25.53 30.61-21.29L30.61-21.29Q30.16-20.35 28.52-19.77L28.52-19.77Q26.91-22.68 23.80-24.62Q20.68-26.56 15.72-26.56L15.72-26.56L13.32-26.56Q13.13-19.55 13.13-15.80L13.13-15.80Q14.08-15.76 15.88-15.76L15.88-15.76Q17.52-15.76 18.50-16.87Q19.47-17.97 20.64-20.31L20.64-20.31L21.48-21.95Q23.13-21.37 23.55-20.45L23.55-20.45Q21.48-16.72 21.48-14.32L21.48-14.32Q21.48-11.72 23.55-8.20L23.55-8.20Q23.09-7.21 21.56-6.68L21.56-6.68Q21.11-7.29 20.53-8.52L20.53-8.52Q19.73-9.84 19.26-10.50Q18.79-11.15 17.87-11.82Q16.95-12.48 15.84-12.52ZM10.12-13.67L10.12-13.67L15.68-13.71Q16.52-13.71 17.27-13.44Q18.01-13.16 18.45-12.88Q18.89-12.60 19.46-11.80Q20.04-11.00 20.28-10.63Q20.53-10.27 21.10-9.14Q21.68-8.01 21.88-7.68L21.88-7.68Q22.48-7.93 22.64-8.20L22.64-8.20Q20.68-11.68 20.68-14.32L20.68-14.32Q20.68-15.53 21.24-17.27Q21.80-19.00 22.64-20.45L22.64-20.45Q22.56-20.72 21.88-20.96L21.88-20.96Q21.72-20.68 21.26-19.79Q20.80-18.89 20.66-18.62Q20.53-18.36 20.11-17.66Q19.69-16.95 19.44-16.72Q19.20-16.48 18.74-16.03Q18.28-15.57 17.86-15.40Q17.44-15.23 16.88-15.10Q16.31-14.96 15.68-14.96L15.68-14.96Q12.03-14.96 10.12-15.04L10.12-15.04Q10.12-19.77 10.35-27.36L10.35-27.36L15.76-27.36Q25.31-27.36 28.89-20.76L28.89-20.76Q29.39-20.96 29.55-21.29L29.55-21.29Q27.60-25.27 25.18-26.91Q22.75-28.55 17.95-28.55L17.95-28.55L8.93-28.55Q6.48-28.55 2.07-28.71L2.07-28.71L2.07-27.79Q6.56-27.36 6.60-25.92L6.60-25.92Q6.80-21.33 6.80-15L6.80-15Q6.80-8.81 6.56-2.68L6.56-2.68Q6.52-1.23 2.03-0.80L2.03-0.80Q1.88-0.49 2.03 0.12L2.03 0.12Q5.35 0 8.85 0L8.85 0Q13.01 0 16.84 0.12L16.84 0.12Q16.99-0.20 16.84-0.80L16.84-0.80Q10.39-1.19 10.31-2.68L10.31-2.68Q10.12-7.29 10.12-13.67Z M41.76-27.36L41.76-27.36L41.80-27.36Q43.01-27.44 44.92-27.44L44.92-27.44Q47.89-27.44 49.46-25.61Q51.04-23.77 51.04-20.84L51.04-20.84Q51.04-17.87 49.60-15.69Q48.16-13.52 45.12-13.52L45.12-13.52Q43.32-13.52 41.56-13.96L41.56-13.96Q41.56-20.84 41.76-27.36ZM50.23-20.84L50.23-20.84Q50.23-23.36 48.72-25.08Q47.21-26.80 44.73-26.60L44.73-26.60Q44.57-19.08 44.57-14.55L44.57-14.55Q44.96-14.43 45.76-14.36L45.76-14.36Q48.05-14.61 49.14-16.50Q50.23-18.40 50.23-20.84ZM38.01-2.68L38.01-2.68Q37.97-1.23 33.48-0.80L33.48-0.80Q33.32-0.49 33.48 0.12L33.48 0.12Q36.80 0 40.29 0L40.29 0Q44.45 0 48.28 0.12L48.28 0.12Q48.44-0.20 48.28-0.80L48.28-0.80Q41.80-1.19 41.76-2.68L41.76-2.68Q41.56-8.16 41.56-12.48L41.56-12.48Q43.77-12.03 45.64-12.03L45.64-12.03Q48.85-6.07 54.08 0L54.08 0Q55.08 0 56.96 0.02Q58.85 0.04 60.36 0.06Q61.88 0.08 63.24 0.12L63.24 0.12Q63.40-0.23 63.24-0.80L63.24-0.80Q60.04-1.04 57.84-2.37Q55.64-3.71 52.71-7.32L52.71-7.32Q50.72-9.84 49.12-12.64L49.12-12.64Q52.01-13.59 53.67-15.82Q55.33-18.05 55.33-20.84L55.33-20.84Q55.33-24.36 53.07-26.53Q50.80-28.71 46.80-28.71L46.80-28.71Q33.59-28.55 33.52-28.71L33.52-28.71Q33.40-28.24 33.52-27.79L33.52-27.79Q38.01-27.36 38.05-25.92L38.05-25.92Q38.24-21.33 38.24-15L38.24-15Q38.24-8.81 38.01-2.68ZM37.21-2.71L37.21-2.71Q37.44-7.60 37.44-15L37.44-15Q37.44-21.29 37.25-25.88L37.25-25.88Q37.21-26.60 32.89-27.03L32.89-27.03Q32.56-28.32 32.97-29.55L32.97-29.55Q35.12-29.43 37.64-29.43Q40.16-29.43 43.42-29.47Q46.68-29.51 48.20-29.51L48.20-29.51Q52.93-29.51 55.63-27.12Q58.32-24.73 58.32-20.84L58.32-20.84Q58.32-18.09 56.74-15.76Q55.16-13.44 52.48-12.25L52.48-12.25Q53.81-10.08 55.57-7.79L55.57-7.79Q57.64-5.04 59.64-3.42Q61.64-1.80 64.08-1.56L64.08-1.56Q64.39-0.31 64.00 0.96L64.00 0.96Q61.21 0.88 53.73 0.80L53.73 0.80Q48.24-5.61 45.16-11.23L45.16-11.23L44.57-11.23Q44.57-7.60 44.77-2.71L44.77-2.71Q44.77-2.60 44.86-2.48Q44.96-2.36 45.63-2.11Q46.29-1.86 47.65-1.67Q49.00-1.48 49.16-1.45L49.16-1.45Q49.49-0.35 49.04 0.96L49.04 0.96Q41.84 0.80 40.29 0.80L40.29 0.80Q39.24 0.80 32.93 0.96L32.93 0.96Q32.44-0.39 32.93-1.56L32.93-1.56Q37.17-1.99 37.21-2.71Z M96.80-0.80L96.80-0.80Q95.70-0.86 94.68-0.97Q93.65-1.07 92.81-1.27Q91.97-1.46 91.40-1.79Q90.82-2.11 90.64-2.60L90.64-2.60L79.84-29.28Q79.51-29.26 79.20-29.00L79.20-29.00Q79.06-26.58 77.71-25.12L77.71-25.12L78.16-23.96L69.92-3.24Q69.14-1.29 65.12-0.80L65.12-0.80Q65-0.53 65-0.31L65-0.31Q65-0.08 65.12 0.16L65.12 0.16Q67.34 0.08 68.70 0.04Q70.06 0 70.57 0L70.57 0Q71.02 0 72.61 0.04Q74.20 0.08 76.93 0.16L76.93 0.16Q77.05-0.08 77.05-0.31L77.05-0.31Q77.05-0.53 76.93-0.80L76.93-0.80Q75.31-0.96 74.30-1.14Q73.28-1.33 72.71-1.54Q72.15-1.76 71.95-2.02Q71.76-2.29 71.76-2.62L71.76-2.62Q71.76-2.83 71.84-3.05L71.84-3.05L74.69-10.20Q76.86-10.23 78.19-10.25Q79.53-10.27 80.04-10.27L80.04-10.27Q81.15-10.27 82.02-10.26Q82.89-10.25 83.52-10.23L83.52-10.23L86.35-3.05Q86.45-2.75 86.45-2.60L86.45-2.60Q86.45-2.07 85.91-1.66Q85.37-1.25 84.59-1.09L84.59-1.09L82.48-0.80Q82.36-0.53 82.36-0.31L82.36-0.31Q82.36-0.08 82.48 0.16L82.48 0.16Q84.14 0.10 85.85 0.06Q87.56 0.02 89.36 0.02L89.36 0.02Q91.15 0.02 93.00 0.06Q94.84 0.10 96.80 0.16L96.80 0.16Q96.93-0.12 96.93-0.31L96.93-0.31Q96.93-0.43 96.89-0.55Q96.86-0.66 96.80-0.80ZM80.04-11.80L80.04-11.80Q77.21-11.80 75.37-11.88L75.37-11.88L79.08-21.45L79.16-21.45L82.89-11.84Q81.84-11.80 80.04-11.80ZM81.72-12.60L79.12-19.39L76.52-12.64Q78.89-12.52 81.72-12.60L81.72-12.60ZM97.40-1.52L97.40-1.52Q97.89-0.35 97.36 0.96L97.36 0.96L81.88 0.96Q81.41-0.39 81.88-1.52L81.88-1.52Q84.00-1.64 84.88-1.96Q85.76-2.29 85.49-3.01L85.49-3.01L82.93-9.47Q79.32-9.61 75.20-9.39L75.20-9.39L72.68-2.93Q72.56-2.60 72.86-2.33Q73.16-2.07 73.85-1.91Q74.53-1.76 75.45-1.66Q76.37-1.56 77.52-1.52L77.52-1.52Q78.01-0.35 77.48 0.96L77.48 0.96Q71.07 0.72 64.57 0.96L64.57 0.96Q64.04-0.35 64.53-1.52L64.53-1.52Q68.55-1.99 69.08-3.28L69.08-3.28L77.32-24.00Q77.25-24.16 77.02-24.72Q76.80-25.27 76.76-25.45L76.76-25.45Q78.28-26.99 78.44-29.43L78.44-29.43Q80.16-30.27 82.48-30.39L82.48-30.39L93.44-3.20Q93.81-2.29 94.61-1.98Q95.41-1.68 97.40-1.52Z M109.92-29.36L123.44-12.48L123.44-15.04Q123.44-19.55 123.24-25.64L123.24-25.64Q123.20-26.68 118.96-27.03L118.96-27.03Q118.69-27.71 118.69-28.28L118.69-28.28Q118.69-28.63 118.96-29.47L118.96-29.47Q121.93-29.36 124.93-29.36Q127.93-29.36 131.09-29.47L131.09-29.47Q131.37-28.63 131.37-28.28L131.37-28.28Q131.37-27.71 131.09-27.03L131.09-27.03Q127.05-26.64 127.01-25.64L127.01-25.64Q126.76-21.52 126.76-13.59L126.76-13.59Q126.76-4.65 127.01 0.88L127.01 0.88L125.41 0.92L106.88-21.76Q106.88-21.41 106.86-20.48Q106.84-19.55 106.84-19.04L106.84-19.04Q106.84-9.61 107.09-2.97L107.09-2.97Q107.13-1.91 111.37-1.56L111.37-1.56Q111.64-0.88 111.64-0.31L111.64-0.31Q111.64 0.12 111.37 0.96L111.37 0.96Q108.36 0.84 105.41 0.84L105.41 0.84Q102.40 0.84 99.24 0.96L99.24 0.96Q98.96 0.12 98.96-0.31L98.96-0.31Q98.96-0.88 99.24-1.56L99.24-1.56Q103.28-1.95 103.32-2.97L103.32-2.97Q103.55-7.07 103.55-15L103.55-15Q103.55-21.07 103.40-25.84L103.40-25.84Q102.13-26.84 99.53-27.03L99.53-27.03Q99.24-27.56 99.24-28.24L99.24-28.24Q99.24-28.96 99.61-29.55L99.61-29.55Q103.69-29.36 109.92-29.36L109.92-29.36ZM125.96-13.59L125.96-13.59Q125.96-19.51 126.21-25.64L126.21-25.64Q126.29-27.40 130.53-27.79L130.53-27.79Q130.68-28.13 130.53-28.71L130.53-28.71Q126.84-28.59 125.29-28.59L125.29-28.59Q122.85-28.59 119.73-28.71L119.73-28.71Q119.57-28.13 119.73-27.79L119.73-27.79Q124.00-27.40 124.04-25.64L124.04-25.64Q124.24-19.55 124.24-15.04L124.24-15.04Q124.24-12.40 124.16-7.93L124.16-7.93L107.32-28.55Q102.93-28.55 100.04-28.71L100.04-28.71Q99.88-28.24 100.04-27.79L100.04-27.79Q102.56-27.64 104.20-26.19L104.20-26.19Q104.36-21.45 104.36-15L104.36-15Q104.36-9.08 104.12-2.97L104.12-2.97Q104.04-1.19 99.80-0.80L99.80-0.80Q99.65-0.49 99.80 0.12L99.80 0.12Q103.48 0 105.04 0L105.04 0Q107.48 0 110.61 0.12L110.61 0.12Q110.76-0.49 110.61-0.80L110.61-0.80Q106.33-1.19 106.29-2.97L106.29-2.97Q106.09-9.04 106.09-13.55L106.09-13.55Q106.09-18.71 106.21-23.77L106.21-23.77L106.41-23.77L125.80 0.12L126.17 0.08Q125.96-4.51 125.96-13.59Z M152.19-28.55L152.19-28.55L142.36-28.55Q139.92-28.55 135.51-28.71L135.51-28.71L135.51-27.79Q140-27.36 140.04-25.92L140.04-25.92Q140.23-21.33 140.23-15L140.23-15Q140.23-8.81 140-2.68L140-2.68Q139.96-1.23 135.47-0.80L135.47-0.80Q135.39-0.12 135.47 0.12L135.47 0.12Q139.24 0 152.99 0L152.99 0Q157.79 0 160.21-1.64Q162.64-3.28 164.59-7.29L164.59-7.29Q164.43-7.60 163.91-7.79L163.91-7.79Q160.35-1.19 150.80-1.19L150.80-1.19L143.75-1.19Q143.55-9.73 143.55-13.67L143.55-13.67L149.92-13.71Q150.76-13.71 151.49-13.44Q152.23-13.16 152.67-12.88Q153.11-12.60 153.69-11.80Q154.28-11.00 154.51-10.63Q154.75-10.27 155.33-9.14Q155.92-8.01 156.11-7.68L156.11-7.68Q156.72-7.93 156.88-8.20L156.88-8.20Q154.92-11.52 154.92-14.32L154.92-14.32Q154.92-15.53 155.48-17.27Q156.04-19.00 156.88-20.45L156.88-20.45Q156.72-20.72 156.11-20.96L156.11-20.96Q155.96-20.68 155.50-19.79Q155.04-18.89 154.89-18.62Q154.75-18.36 154.33-17.66Q153.91-16.95 153.67-16.72Q153.44-16.48 152.98-16.03Q152.52-15.57 152.10-15.40Q151.68-15.23 151.11-15.10Q150.55-14.96 149.92-14.96L149.92-14.96Q145.72-14.96 143.55-15.04L143.55-15.04Q143.55-19.77 143.79-27.36L143.79-27.36L150-27.36Q159.55-27.36 163.11-20.76L163.11-20.76Q163.63-20.96 163.79-21.29L163.79-21.29Q161.84-25.27 159.41-26.91Q156.99-28.55 152.19-28.55ZM154.88-20.31L154.88-20.31L155.72-21.95Q157.36-21.37 157.79-20.45L157.79-20.45Q156.91-18.93 156.32-17.16Q155.72-15.39 155.72-14.32L155.72-14.32Q155.72-11.72 157.79-8.20L157.79-8.20Q157.32-7.21 155.80-6.68L155.80-6.68Q155.08-7.87 154.75-8.52L154.75-8.52Q153.95-9.84 153.49-10.50Q153.03-11.15 152.11-11.82Q151.19-12.48 150.08-12.52L150.08-12.52L146.56-12.52Q146.56-8.20 146.72-1.99L146.72-1.99L150.76-1.99Q155.72-1.99 158.84-3.94Q161.95-5.88 163.55-8.81L163.55-8.81Q165.20-8.20 165.63-7.29L165.63-7.29Q163.07-3.05 162.60 0.80L162.60 0.80L146.39 0.80Q138.67 0.80 134.92 0.92L134.92 0.92Q134.51-0.35 134.88-1.56L134.88-1.56Q139.16-1.99 139.20-2.71L139.20-2.71Q139.43-8.85 139.43-15L139.43-15Q139.43-21.29 139.24-25.88L139.24-25.88Q139.20-26.60 134.88-27.03L134.88-27.03Q134.51-28.40 134.96-29.55L134.96-29.55Q140.96-29.36 142.91-29.36L142.91-29.36L161.80-29.36Q162.27-25.53 164.84-21.29L164.84-21.29Q164.39-20.35 162.75-19.77L162.75-19.77Q161.15-22.68 158.04-24.62Q154.92-26.56 149.96-26.56L149.96-26.56L146.76-26.56Q146.56-19.55 146.56-15.80L146.56-15.80Q147.79-15.76 150.12-15.76L150.12-15.76Q151.76-15.76 152.73-16.87Q153.71-17.97 154.88-20.31Z M177.07-15L177.07-15Q177.07-19.80 177.27-25.92L177.27-25.92Q177.30-27.40 183.79-27.79L183.79-27.79Q183.91-28.16 183.79-28.71L183.79-28.71Q178.67-28.55 175.80-28.55L175.80-28.55Q173.40-28.55 168.98-28.71L168.98-28.71Q168.83-28.36 168.98-27.79L168.98-27.79Q173.48-27.36 173.52-25.92L173.52-25.92Q173.71-21.33 173.71-15L173.71-15Q173.71-8.81 173.48-2.68L173.48-2.68Q173.44-1.23 168.95-0.80L168.95-0.80Q168.83-0.31 168.95 0.12L168.95 0.12Q172.71 0 186.46 0L186.46 0Q191.15 0 193.50-1.76Q195.84-3.52 197.87-7.68L197.87-7.68Q197.71-8.01 197.19-8.20L197.19-8.20Q196.43-6.80 195.51-5.70Q194.59-4.61 193.09-3.51Q191.58-2.40 189.35-1.80Q187.11-1.19 184.28-1.19L184.28-1.19L177.23-1.19Q177.07-8.05 177.07-15ZM180.04-13.55L180.04-13.55Q180.04-8.20 180.20-1.99L180.20-1.99L184.24-1.99Q192.91-1.99 196.84-9.20L196.84-9.20Q198.48-8.59 198.91-7.68L198.91-7.68Q196.11-3.05 195.63 0.80L195.63 0.80L179.86 0.80Q172.15 0.80 168.40 0.92L168.40 0.92Q167.99-0.35 168.36-1.56L168.36-1.56Q172.64-1.99 172.68-2.71L172.68-2.71Q172.91-8.85 172.91-15L172.91-15Q172.91-21.29 172.71-25.88L172.71-25.88Q172.68-26.60 168.36-27.03L168.36-27.03Q168.03-28.32 168.44-29.55L168.44-29.55Q171.84-29.36 177.19-29.36L177.19-29.36Q177.99-29.36 180.39-29.39Q182.79-29.43 184.59-29.43L184.59-29.43Q184.96-28.32 184.63-27.03L184.63-27.03Q180.31-26.60 180.27-25.88L180.27-25.88Q180.04-21.00 180.04-13.55Z M210.35-15L210.35-15Q210.35-19.80 210.55-25.92L210.55-25.92Q210.59-27.40 217.07-27.79L217.07-27.79Q217.19-28.16 217.07-28.71L217.07-28.71Q211.95-28.55 209.08-28.55L209.08-28.55Q206.68-28.55 202.27-28.71L202.27-28.71Q202.11-28.36 202.27-27.79L202.27-27.79Q206.76-27.36 206.80-25.92L206.80-25.92Q206.99-21.33 206.99-15L206.99-15Q206.99-8.81 206.76-2.68L206.76-2.68Q206.72-1.23 202.23-0.80L202.23-0.80Q202.11-0.31 202.23 0.12L202.23 0.12Q206.00 0 219.75 0L219.75 0Q224.43 0 226.78-1.76Q229.12-3.52 231.15-7.68L231.15-7.68Q231.00-8.01 230.47-8.20L230.47-8.20Q229.71-6.80 228.79-5.70Q227.87-4.61 226.37-3.51Q224.86-2.40 222.63-1.80Q220.39-1.19 217.56-1.19L217.56-1.19L210.51-1.19Q210.35-8.05 210.35-15ZM213.32-13.55L213.32-13.55Q213.32-8.20 213.48-1.99L213.48-1.99L217.52-1.99Q226.19-1.99 230.12-9.20L230.12-9.20Q231.76-8.59 232.19-7.68L232.19-7.68Q229.39-3.05 228.91 0.80L228.91 0.80L213.14 0.80Q205.43 0.80 201.68 0.92L201.68 0.92Q201.27-0.35 201.64-1.56L201.64-1.56Q205.92-1.99 205.96-2.71L205.96-2.71Q206.19-8.85 206.19-15L206.19-15Q206.19-21.29 206.00-25.88L206.00-25.88Q205.96-26.60 201.64-27.03L201.64-27.03Q201.31-28.32 201.72-29.55L201.72-29.55Q205.12-29.36 210.47-29.36L210.47-29.36Q211.27-29.36 213.67-29.39Q216.07-29.43 217.87-29.43L217.87-29.43Q218.24-28.32 217.91-27.03L217.91-27.03Q213.59-26.60 213.55-25.88L213.55-25.88Q213.32-21.00 213.32-13.55Z"/></g>
</svg>
</g><g opacity="1" transform="rotate(0 273.8782 177.9491)">
<svg width="100" height="65.0336" x="273.8782" y="177.9491" version="1.1" preserveAspectRatio="none" viewBox="20 47.933345794677734 160.01980590820312 104.066650390625">
  <g transform="matrix(1 0 0 1 0 0)" ><g><path d="M180 98.1c-.1.5-.4.8-.6 1-.6.6-1.4 1-2.1 1.4l-1.5.9c-.5.4-.8 1.1-.8 1.6 0 .3.1.5.2.6.9.8.7 2.1 0 3l-.3.3c-.1.2-.4.4-.4.5l.1.2c.1.2.2.4.3.8.2 1.1-.6 2-1.1 2.5-1 1.1-1.5 2-1.5 2.9 0 .4.1.8.3 1.2.1.4.2.7.3 1.1.5 2.6-1.3 5.4-4.1 6.6-2.1.9-4.6.9-7.6.2-1-.3-2.1-.6-3.1-.9-1.3-.4-2.5-.8-3.7-1.1-.3-.1-.5-.1-.6 0l-.3.3c-.6.9-1.7 2.9-2 3.9-.5 2-.7 3.4-.9 5l-.3 1.8c-.6 3.9-.5 11.3-.3 15.1 0 .5-.4 1-.9 1s-.9-.4-1-.9c-.1-1.1-.5-10.6.3-15.5l.3-1.8c.2-1.5.4-3 1-5.2.3-1.4 1.6-3.6 2.3-4.5.2-.3.6-.8 1.1-1 .6-.3 1.3-.2 1.9-.1 1.3.3 2.6.7 3.9 1.1 1 .3 1.9.6 2.9.9 2.6.6 4.7.6 6.3-.1 1.7-.7 3.2-2.6 2.9-4.5-.1-.3-.1-.6-.2-.9-.1-.5-.3-1-.3-1.6-.1-1.4.6-2.8 2-4.3.2-.2.6-.7.6-.8 0 0-.1-.2-.1-.3 0-.1-.1-.2-.1-.3-1.2.5-2.6.8-3.4.9h-.1c-.5 0-.9-.4-1-.9 0-.5.4-1 .9-1 1.3-.1 3.8-1 4.4-1.7.1-.1.2-.4.2-.5-.5-.5-.8-1.2-.8-2 0-1.1.6-2.3 1.5-3.1.6-.5 1.2-.8 1.8-1.1.6-.3 1.2-.7 1.7-1.1l-.1-.1-3.2-5.6c-.7-1.1-1.4-2.4-1.7-3.9-.4-1.7-.1-3.4.2-5.1v-.1c2.2-12.6-5.7-24.8-14.6-29.3-1.6-.8-3.1-1.5-4.8-2.1-8.4-1.9-16.1-2.2-22.9-.6-9.9 2.2-18.8 8.7-25.4 14.1-4.1 3.4-8 7.1-11.7 10.9-.6 2.5-1.2 5-1.7 7.5-.1.5-.6.9-1.1.8-.5-.1-.9-.6-.8-1.1.3-1.3.6-2.8.9-4.3-1.3 1.4-2.6 2.7-3.8 4.1-2.1 2.3-4.4 4.7-6.6 7-1.8 1.9-3.7 3.7-5.6 5.5v.2c-.8 1.8-1.5 3.5-2.2 5.3-.2.5-.8.8-1.3.6-.5-.2-.8-.7-.6-1.2.2-.6.5-1.2.7-1.8-4 3.5-8.4 6.8-13.2 9.5v.1c-.7 2.6-4.1 5-5.2 5.7-.4.3-1.1.2-1.4-.3-.3-.4-.2-1 .2-1.3 1-.7 2.1-1.6 3-2.5-1 .5-2 .9-3 1.4-3.3 1.4-7 2-10.8 2-4.2 0-8.4-.8-12.1-2.5-.5-.2-.7-.8-.5-1.3.2-.5.8-.7 1.3-.5 6.5 2.9 14.9 3.1 21.3.4 3.2-1.3 6.3-3 9.1-4.8-.9-.1-1.9-.4-2.8-.6-.5-.2-.8-.7-.7-1.2.2-.5.7-.8 1.2-.6 1.4.4 2.9.7 4.1.7.2 0 .3.1.5.2 6.2-4.3 11.6-9.5 16.3-14.3.5-.5 1-1.1 1.5-1.6-1.6.4-3.3.7-4.6.7h-.2c-.5 0-1-.5-.9-1 0-.5.5-1 1-.9 2 .1 5.9-.9 7.6-2 .1 0 .2-.1.2-.1.7-.7 1.3-1.4 2-2.1 3.6-3.9 7.3-7.9 11.3-11.7-.3.1-.6.1-.8.1-.5.1-1-.3-1.1-.8-.1-.5.3-1 .9-1.1 1.2-.1 3-.5 3.9-.9 1.4-1.3 2.8-2.5 4.3-3.7 6.8-5.5 16-12.2 26.2-14.5 7.1-1.6 15.1-1.4 23.8.6h.2c1.7.6 3.4 1.4 5 2.2 9.5 4.8 18 17.9 15.7 31.4v.1c-.3 1.5-.5 3-.2 4.3.2 1.1.9 2.2 1.5 3.3l3.2 5.6c.2.4.5.9.4 1.6zm-61.6 2.9c.3-.4.2-1-.2-1.4-.4-.3-1-.2-1.4.2-6.9 8.9-14 18.2-22.8 25.4-18.8 15.4-33 10-38.3 7-.5-.3-1.1-.1-1.3.3-.3.5-.1 1.1.3 1.3 2.7 1.6 7.6 3.7 14.2 3.7 7.1 0 16.1-2.5 26.3-10.9 9.1-7.3 16.3-16.6 23.2-25.6zm-.3 20.6c-.5-.2-1.1-.1-1.3.4-4.8 9.2-17.6 18.3-27.9 19.9-.5.1-.9.6-.8 1.1.1.5.6.9 1.1.8 6-.9 12.8-4.3 18.6-8.8-.6 1.1-1.2 2.1-2 3-.5 0-1 .4-1 1 0 .5.4 1 1 1 .3 0 .6-.1.8-.4.3 0 .6-.1.8-.4.7-.9 3.1-4 3.3-6.6 3.4-3 6.2-6.4 7.9-9.7.1-.5 0-1-.5-1.3zm-39.2-4.2c2.7-1.9 5.2-3.9 7.6-6.1-.5.9-.9 1.9-1.3 2.7-.2.5 0 1.1.5 1.3.1.1.3.1.4.1.4 0 .7-.2.9-.6 1.2-2.4 2.4-4.8 3.6-7.1.1-.1.1-.3.1-.5.9-.9 1.7-1.8 2.6-2.7.4-.1.6-.4.7-.7 2.9-3.1 5.6-6.3 8.3-9.5l1.5-1.8c-.3 1.5-.7 3-.9 4.3-.1.5.2 1 .8 1.1h.2c.5 0 .9-.3 1-.8.5-2.6 1.1-5.2 1.8-7.8v-.2l8.1-9.6c.3-.4.3-1-.1-1.4-.4-.3-1-.3-1.4.1L100.8 93c-2.8 3.3-5.6 6.6-8.5 9.8-1.7.5-3.4.9-5.1 1.2-.5.1-.9.6-.8 1.1.1.5.6.9 1.1.8.8-.2 1.5-.3 2.3-.5-3.7 3.8-7.6 7.4-12 10.4-5.9 4.1-12.8 6.8-19.9 7.7-3.5.5-7 .5-10.6.2-1.4-.1-2.9-.3-4.2-.6-.4-.1-.8-.2-1.2-.2-1.4-.3-2.7-.5-3.8-1.3-.4-.3-1.1-.2-1.4.3-.3.4-.2 1 .3 1.3 1.4 1 3 1.3 4.5 1.6.4.1.8.1 1.1.2 1.5.3 3 .5 4.5.6 1.5.1 3 .2 4.5.2 2.2 0 4.3-.1 6.5-.4 7.5-1 14.6-3.8 20.8-8zm86.2-27.6s0 .1 0 0c.4.3.6.8.4 1.3-.2.5-.7.8-1.2.6-1.8-.6-3.8-2.2-5.1-3.3-.1-.1-.2-.2-.2-.4-.3.2-.7.3-1 .6-.5.3-1.1.2-1.4-.3-.3-.4-.2-1 .3-1.3 3.2-2.1 6.5-2.1 9.6-2 .1-.1.4-.4.8-1.1.2-.5.8-.7 1.3-.4.5.2.7.8.4 1.3-.8 1.5-1.6 2.2-2.6 2.2h-.7c0 .9 0 1.5-.6 2.8zm-4.2-2.6c.9.7 1.7 1.3 2.4 1.8.4-.9.4-1.3.5-2.2-1 .1-2 .2-2.9.4zm-.4-28.4c.2-.5 0-1.1-.4-1.3-.5-.2-1.1 0-1.3.4-3.5 6.9-10.4 11.6-17.3 15.7-.8.5-1.6.9-2.4 1.4-3.8 2.2-7.7 4.4-11.2 7.1-.4.3-.5.9-.2 1.4.3.4.9.5 1.4.2 3.4-2.6 7.3-4.8 11-7 .8-.5 1.6-.9 2.4-1.4 7.1-4.2 14.3-9.1 18-16.5zm-36.7 13.6c.2 0 .5-.1.6-.2 4.3-3.7 9-6.9 14-9.6.5-.2.7-.8.4-1.3-.3-.5-.8-.7-1.3-.4-5.1 2.7-10 6-14.4 9.9-.4.3-.4 1-.1 1.4.2 0 .5.2.8.2zm2 15.8c-1.6.2-2.9 1.3-3.5 2.3-1.1 2 .2 4.5 1.4 6.5 1.2 1.8 1.2 2.4 1.2 3.7 0 .6 0 1.3.1 1.9 0 .5.2 1.5 1.1 2 .2.1.3.1.5.1.4 0 .7-.2.9-.5.3-.5.1-1-.4-1.3 0 0-.1-.1-.1-.6-.1-.6-.1-1.2-.1-1.8 0-1.6-.1-2.5-1.5-4.7-.5-.8-2.1-3.3-1.4-4.5.3-.6 1.1-1.2 2-1.3.7-.1 1.3.2 1.8.8.4.4 1 .4 1.4.1.4-.4.4-1 .1-1.4-1.3-1.3-2.6-1.4-3.5-1.3zm43.9-8.6c.2-.3.3-.7.2-1.1-.3-.8-1.7-1.3-2.5-1.5-1-.3-2.1-.5-3.2-.5-2.1-.1-4.2.3-6.2.9-2.8.8-5.5 2.9-7.2 5.1-.1.2-.2.5-.4.6 2.1-2.2 3.8-2.7 4.7-3.1 3-1 6.4-1.3 9.5-.5 1.3.3 2.6 1.1 4 .9.5-.2.9-.4 1.1-.8z" data-color="1" class="alcHhARl1acolors-0"></path><path d="M28.7 112c-3.9-1.2-8.7-5.7-8.7-5.7s1.1-1.1 3.7-1.8 6.5-.8 8.4.3c2 1.1 3.6 3.4 3.6 3.4l2.7 3.5-1.4.3c-3.7.4-6.9.5-8.3 0zm18.5 4.6c-1.4 2.5-1.5 7.3-1.6 7.5 5.5-3.2 9.6-11.3 9.6-11.3s-1.9-.2-3.3.3c-2.9 1-3.8 1.9-4.7 3.5zm5.7-12.4c4.4-.5 7 .1 7 .1l-.3-.8s-.5-.4-2.3-1.9c-1.7-1.6-4.7-4.1-7.3-4.5-2.6-.4-4 .3-6 .9-2 .6-4 2.3-4 2.3s8.5 4.4 12.9 3.9zm13.9.1c-1.2 1.8-1.9 5.7-1.8 8.6.1 2.8.7 4.2.7 4.2s4.3-4.1 6-7.8c.6-1.3 1.2-4.6 1.5-8.5l.1-1.5-3.2 2s-2.1 1.2-3.3 3zM74 83.6c-4.1-2.3-6.1-2.6-9.1-2.1-4.5.8-10.4 5.7-10.7 5.7 9.5 3.5 23.6.1 23.6.1s-1.7-2.5-3.8-3.7zm17.3 9.7c1.2-2.3 1-6.1.9-8.4-.2-2.3-.1-3-.1-3l-.5-.7s-1.1 2.4-4 5.5c-3 3.2-4.6 12.5-4.6 12.5s2.5-.5 4.1-1.7c1.6-1.2 2.9-1.9 4.2-4.2zM98.4 69l-.7-.5s-.7 0-3-.2-6.1-.5-8.4.7c-2.3 1.2-3 2.5-4.3 4-1.2 1.5-1.8 4-1.8 4s9.3-1.3 12.5-4.2c3.4-2.8 5.7-3.8 5.7-3.8zm-17 35.4c-3.1.8-6.7 3.4-6.7 3.4s1 .6 3.1 1c2.2.4 5.3.4 6.8-.3s2.7-2 2.7-2l1.9-2.1-1.2-.1c-2.8-.2-5.5-.2-6.6.1zm18.4 6.7c1.6-1.2 2.9-1.9 4.1-4.2 1.2-2.3 1-6.1.9-8.4-.2-2.3-.1-3-.1-3l-.5-.7s-1.1 2.4-4 5.5c-2.9 3.2-4.5 12.5-4.5 12.5s2.5-.4 4.1-1.7zm-15.9 13.1c1.7-1.9 2.5-5.7 2.9-8 .4-2.3.6-2.9.6-2.9l-.3-.8s-1.6 2-5.2 4.4c-3.6 2.4-7.4 11-7.4 11s2.5.1 4.4-.7c1.8-.8 3.3-1.1 5-3zm5 16.2c-2.1.5-5.3 3-7.1 5.1-1.9 2.1-2.3 3.5-2.3 3.5s5.9-.1 9.7-1.7c1.3-.6 4-2.6 6.8-5.2l1.1-1-3.7-.7s-2.4-.5-4.5 0zM45 128.6s.6 2.5 1.9 4c1.3 1.5 2.1 2.8 4.4 3.9 2.3 1.1 6.2.7 8.5.5 2.3-.3 3-.3 3-.3l.7-.5s-2.4-1-5.7-3.8c-3.5-2.7-12.8-3.8-12.8-3.8zm69.2 0l-.6-.6s-.6-.1-2.8-.8-5.9-1.8-8.4-1.1c-2.5.6-3.5 1.8-5 3-1.5 1.3-2.6 3.5-2.6 3.5s9.4.7 13.1-1.4c3.8-2.2 6.3-2.6 6.3-2.6zm-12.4 15.3c-.7 2.8.7 7.4.6 7.6 4.4-4.6 6-13.6 6-13.6s-1.9.4-3.1 1.3c-2.4 1.7-3 2.8-3.5 4.7zm-67.3-26.1c-2.8-.6-7.4.8-7.6.7 4.7 4.3 13.7 5.8 13.7 5.8s-.4-1.9-1.3-3.1c-1.8-2.3-2.9-2.9-4.8-3.4z" data-color="2" class="alcHhARl1acolors-1"></path><path d="M61 145.8c-1.9 0-1.9-2.9 0-2.9s1.9 2.9 0 2.9zm-8.4 3.5c-1.2 0-1.2 1.9 0 1.9 1.3.1 1.3-1.9 0-1.9zm17.1-3.1c-3.7 0-3.7 5.8 0 5.8s3.8-5.8 0-5.8zm-1-16.8c1.9 0 1.9-2.9 0-2.9-1.8 0-1.8 2.9 0 2.9zm-29.6-1.3c-1.2 0-1.2 1.9 0 1.9 1.2.1 1.2-1.9 0-1.9z" data-color="1" class="alcHhARl1acolors-0"></path></g></g>
</svg>
</g></svg>